<svg width="250" height="185" viewBox="0 0 250 185" fill="none" xmlns="http://www.w3.org/2000/svg">
<path d="M27.776 30.448C33.4933 28.3147 38.656 27.376 43.264 27.632C47.9573 27.888 52.1387 29.0827 55.808 31.216C59.4773 33.264 62.592 36.0373 65.152 39.536C67.7973 43.0347 69.9307 46.96 71.552 51.312C72.832 54.5547 73.8133 57.968 74.496 61.552C75.1787 65.136 75.5627 68.72 75.648 72.304C75.8187 75.8027 75.6907 79.2587 75.264 82.672C74.9227 86.0853 74.3253 89.2427 73.472 92.144C72.96 94.1067 72.3627 95.8987 71.68 97.52C70.9973 99.1413 70.1867 100.763 69.248 102.384C67.1147 106.053 64.3413 109.04 60.928 111.344C57.6 113.648 53.9307 115.269 49.92 116.208C47.1893 116.891 44.3733 117.232 41.472 117.232C38.5707 117.147 35.712 116.763 32.896 116.08C30.08 115.312 27.3493 114.245 24.704 112.88C22.144 111.429 19.7973 109.637 17.664 107.504C15.0187 104.944 12.8427 102 11.136 98.672C9.42933 95.2587 8.10667 91.7173 7.168 88.048C6.22933 84.2933 5.632 80.5387 5.376 76.784C5.12 73.0293 5.12 69.4453 5.376 66.032C5.632 62.8747 6.22933 59.504 7.168 55.92C8.192 52.336 9.64267 48.88 11.52 45.552C13.3973 42.224 15.6587 39.2373 18.304 36.592C21.0347 33.8613 24.192 31.8133 27.776 30.448ZM57.728 85.232C58.752 81.2213 59.1787 76.6987 59.008 71.664C58.8373 66.6293 58.0267 61.8933 56.576 57.456C55.6373 54.7253 54.4427 52.336 52.992 50.288C51.6267 48.1547 49.9627 46.5333 48 45.424C46.1227 44.3147 43.904 43.76 41.344 43.76C38.784 43.76 35.9253 44.528 32.768 46.064C30.8907 47.0027 29.2693 48.2827 27.904 49.904C26.624 51.5253 25.5573 53.36 24.704 55.408C23.936 57.456 23.296 59.5893 22.784 61.808C22.3573 64.0267 22.1013 66.16 22.016 68.208C21.8453 70.4267 21.8027 72.7733 21.888 75.248C21.9733 77.6373 22.2293 80.0693 22.656 82.544C23.168 84.9333 23.8507 87.2373 24.704 89.456C25.5573 91.5893 26.7093 93.5093 28.16 95.216C30.3787 97.776 32.9387 99.568 35.84 100.592C38.8267 101.531 41.7707 101.659 44.672 100.976C49.3653 99.952 52.9493 96.8373 55.424 91.632C56.448 89.7547 57.216 87.6213 57.728 85.232ZM147.756 108.272C147.927 108.699 148.012 109.339 148.012 110.192C148.012 110.96 148.012 111.6 148.012 112.112C148.012 112.795 147.884 113.435 147.628 114.032C147.372 114.629 147.031 115.184 146.604 115.696C145.836 116.72 144.727 117.488 143.276 118C141.228 118.683 139.308 119.024 137.516 119.024C136.577 119.109 135.596 119.152 134.572 119.152C133.548 119.152 132.524 119.237 131.5 119.408H130.988C124.417 119.493 117.633 119.493 110.636 119.408C108.929 119.323 107.009 119.323 104.876 119.408C102.743 119.579 100.652 119.536 98.604 119.28C96.556 119.109 94.6787 118.64 92.972 117.872C91.3507 117.019 90.1987 115.696 89.516 113.904C89.3453 113.477 89.2173 113.093 89.132 112.752C89.0467 112.325 89.004 111.899 89.004 111.472C88.6627 108.571 88.5347 105.712 88.62 102.896C88.7053 100.08 88.748 97.3067 88.748 94.576L89.004 76.016V58.864C89.004 55.792 89.004 53.0613 89.004 50.672C89.0893 48.2827 89.1747 45.6373 89.26 42.736V42.096C89.3453 41.2427 89.388 40.3893 89.388 39.536C89.4733 38.6827 89.516 37.8293 89.516 36.976C89.6867 35.0133 90.156 33.3493 90.924 31.984C91.436 30.704 92.332 29.68 93.612 28.912C94.7213 28.144 96.044 27.76 97.58 27.76C98.1773 27.76 98.732 27.8027 99.244 27.888C99.8413 27.888 100.396 27.9307 100.908 28.016C101.42 28.1013 101.889 28.272 102.316 28.528C102.828 28.784 103.34 29.1253 103.852 29.552C104.364 30.1493 104.833 30.8747 105.26 31.728C105.601 32.6667 105.815 33.6053 105.9 34.544C105.985 35.1413 106.071 35.696 106.156 36.208C106.241 36.72 106.284 37.232 106.284 37.744C106.113 38.256 106.028 38.768 106.028 39.28C106.028 39.792 106.028 40.2613 106.028 40.688V42.992L105.516 103.28L130.86 103.536H136.876C137.388 103.536 137.943 103.579 138.54 103.664C139.137 103.664 139.735 103.707 140.332 103.792C141.015 103.877 141.612 103.963 142.124 104.048C142.636 104.133 143.148 104.261 143.66 104.432C144.599 104.688 145.367 105.115 145.964 105.712C146.903 106.565 147.5 107.419 147.756 108.272ZM227.237 106.224C228.176 107.931 228.56 109.424 228.389 110.704C228.304 111.984 228.176 113.051 228.005 113.904C227.749 114.843 227.109 115.653 226.085 116.336C225.146 116.933 224.08 117.403 222.885 117.744C221.349 118.171 220.069 118.256 219.045 118C217.765 117.744 216.698 117.317 215.845 116.72C215.333 116.293 214.864 115.909 214.437 115.568C214.01 115.141 213.584 114.757 213.157 114.416C212.73 113.989 212.346 113.605 212.005 113.264C211.664 112.923 211.408 112.581 211.237 112.24C211.066 111.899 210.896 111.685 210.725 111.6C210.64 111.429 210.554 111.301 210.469 111.216L193.445 86.64L176.549 111.216C176.464 111.301 176.336 111.429 176.165 111.6C176.08 111.685 175.909 111.899 175.653 112.24C175.482 112.581 175.226 112.923 174.885 113.264C174.629 113.605 174.33 113.989 173.989 114.416C173.562 114.757 173.093 115.141 172.581 115.568C172.069 115.909 171.6 116.293 171.173 116.72C170.661 117.061 170.106 117.317 169.509 117.488C168.997 117.659 168.485 117.829 167.973 118C166.864 118.256 165.669 118.171 164.389 117.744C161.744 117.147 159.909 115.867 158.885 113.904C158.373 112.88 158.16 111.813 158.245 110.704C158.33 109.509 158.586 108.315 159.013 107.12C159.525 105.925 160.08 104.773 160.677 103.664C161.36 102.555 162.042 101.488 162.725 100.464C163.066 100.037 163.365 99.6533 163.621 99.312C163.962 98.9707 164.304 98.5867 164.645 98.16C165.754 96.7093 166.821 95.2587 167.845 93.808C168.869 92.272 169.978 90.6507 171.173 88.944L183.077 71.664L165.541 46.32L164.005 44.144C163.664 43.632 163.322 43.1627 162.981 42.736C162.64 42.3093 162.298 41.7973 161.957 41.2C161.616 40.7733 161.274 40.304 160.933 39.792C160.592 39.28 160.293 38.6827 160.037 38C159.781 37.488 159.525 37.0187 159.269 36.592C159.098 36.08 158.928 35.4827 158.757 34.8C158.501 33.776 158.416 32.8373 158.501 31.984C158.757 30.8747 159.312 29.936 160.165 29.168C160.506 28.7413 160.89 28.4 161.317 28.144C161.829 27.888 162.298 27.632 162.725 27.376C163.578 27.0347 164.346 26.7787 165.029 26.608C165.712 26.4373 166.437 26.352 167.205 26.352C168.741 26.4373 170.192 26.992 171.557 28.016C173.264 29.1253 174.8 30.4907 176.165 32.112C176.762 33.0507 177.36 33.9467 177.957 34.8C178.554 35.568 179.194 36.3787 179.877 37.232L180.005 37.744C182.138 40.56 184.058 43.2907 185.765 45.936C187.557 48.496 189.52 51.2267 191.653 54.128C191.994 54.5547 192.293 54.9813 192.549 55.408C192.805 55.8347 193.104 56.2613 193.445 56.688C193.786 56.2613 194.085 55.8347 194.341 55.408C194.597 54.9813 194.896 54.5547 195.237 54.128C197.2 51.2267 199.077 48.496 200.869 45.936C202.746 43.2907 204.709 40.56 206.757 37.744L207.013 37.232C207.696 36.3787 208.336 35.568 208.933 34.8C209.616 33.9467 210.256 33.0507 210.853 32.112C212.218 30.4907 213.754 29.1253 215.461 28.016C216.741 26.992 218.192 26.4373 219.813 26.352C221.178 26.352 222.629 26.6933 224.165 27.376C225.189 27.9733 225.957 28.5707 226.469 29.168C227.493 29.936 228.133 30.8747 228.389 31.984C228.474 32.8373 228.389 33.776 228.133 34.8C227.962 35.4827 227.749 36.08 227.493 36.592C227.322 37.0187 227.024 37.488 226.597 38C226.085 39.28 225.53 40.3467 224.933 41.2C224.592 41.7973 224.25 42.3093 223.909 42.736C223.568 43.1627 223.269 43.632 223.013 44.144L221.477 46.32L203.813 71.664L215.717 88.944L222.629 98.672C223.397 99.952 224.165 101.189 224.933 102.384C225.701 103.579 226.469 104.859 227.237 106.224Z" fill="#2F7E3B"/>
<path d="M18.6344 178.23C17.0557 178.23 16.2664 177.441 16.2664 175.862V151.222H13.8024C12.2237 151.222 11.4344 150.433 11.4344 148.854C11.4344 147.297 12.2237 146.518 13.8024 146.518H16.2664V145.398C16.2664 141.302 17.2477 138.284 19.2104 136.342C21.1731 134.38 24.2024 133.398 28.2984 133.398C29.6851 133.398 30.3784 134.177 30.3784 135.734C30.3784 137.313 29.6851 138.102 28.2984 138.102C25.5037 138.102 23.5837 138.614 22.5384 139.638C21.4931 140.662 20.9704 142.582 20.9704 145.398V146.518H28.0104C29.5891 146.518 30.3784 147.297 30.3784 148.854C30.3784 150.433 29.5891 151.222 28.0104 151.222H20.9704V175.862C20.9704 177.441 20.1917 178.23 18.6344 178.23ZM47.7489 178.23C43.5889 178.23 40.5062 177.238 38.5009 175.254C36.5169 173.27 35.5249 170.209 35.5249 166.07V158.71C35.5249 154.508 36.5169 151.425 38.5009 149.462C40.5062 147.478 43.5889 146.497 47.7489 146.518H52.9969C57.1569 146.518 60.2289 147.51 62.2129 149.494C64.1969 151.478 65.1889 154.55 65.1889 158.71V166.006C65.1889 170.166 64.1969 173.249 62.2129 175.254C60.2289 177.238 57.1569 178.23 52.9969 178.23H47.7489ZM40.2289 166.07C40.2289 168.908 40.7622 170.86 41.8289 171.926C42.8956 172.993 44.8689 173.526 47.7489 173.526H52.9969C55.8769 173.526 57.8396 172.993 58.8849 171.926C59.9516 170.86 60.4849 168.886 60.4849 166.006V158.71C60.4849 155.83 59.9516 153.868 58.8849 152.822C57.8396 151.756 55.8769 151.222 52.9969 151.222H47.7489C45.8289 151.222 44.3249 151.446 43.2369 151.894C42.1489 152.342 41.3702 153.11 40.9009 154.198C40.4529 155.286 40.2289 156.79 40.2289 158.71V166.07ZM79.0799 178.23C77.5012 178.23 76.7119 177.441 76.7119 175.862V148.854C76.7119 147.297 77.5012 146.518 79.0799 146.518C80.6372 146.518 81.4159 147.297 81.4159 148.854V152.182C82.6319 150.326 84.2319 148.918 86.2159 147.958C88.2212 146.998 90.5466 146.518 93.1919 146.518C94.7706 146.518 95.5599 147.297 95.5599 148.854C95.5599 150.433 94.7706 151.222 93.1919 151.222C89.4586 151.222 86.5999 151.969 84.6159 153.462C82.6319 154.934 81.5652 156.95 81.4159 159.51V175.862C81.4159 177.441 80.6372 178.23 79.0799 178.23ZM120.37 178.23C119.581 178.23 118.983 178.038 118.578 177.654C118.194 177.249 118.002 176.652 118.002 175.862V137.942C118.002 137.132 118.194 136.534 118.578 136.15C118.983 135.766 119.581 135.574 120.37 135.574C121.159 135.574 121.746 135.766 122.13 136.15C122.514 136.534 122.706 137.132 122.706 137.942V175.862C122.706 176.652 122.514 177.249 122.13 177.654C121.746 178.038 121.159 178.23 120.37 178.23ZM137.932 178.23C137.143 178.23 136.546 178.038 136.14 177.654C135.756 177.249 135.564 176.652 135.564 175.862V137.942C135.564 137.132 135.756 136.534 136.14 136.15C136.546 135.766 137.143 135.574 137.932 135.574C138.722 135.574 139.308 135.766 139.692 136.15C140.076 136.534 140.268 137.132 140.268 137.942V175.862C140.268 176.652 140.076 177.249 139.692 177.654C139.308 178.038 138.722 178.23 137.932 178.23ZM165.863 178.23C165.095 178.23 164.508 178.038 164.103 177.654C163.698 177.249 163.495 176.662 163.495 175.894V140.278H150.695C149.927 140.278 149.34 140.086 148.935 139.702C148.53 139.297 148.327 138.71 148.327 137.942C148.327 137.174 148.53 136.588 148.935 136.182C149.34 135.777 149.927 135.574 150.695 135.574H181.031C181.799 135.574 182.375 135.777 182.759 136.182C183.164 136.588 183.367 137.174 183.367 137.942C183.367 138.71 183.164 139.297 182.759 139.702C182.375 140.086 181.799 140.278 181.031 140.278H168.199V175.894C168.199 176.62 167.996 177.196 167.591 177.622C167.186 178.028 166.61 178.23 165.863 178.23ZM201.581 178.23C196.781 178.23 193.24 177.1 190.957 174.838C188.696 172.556 187.565 169.014 187.565 164.214V149.558C187.565 144.716 188.696 141.164 190.957 138.902C193.218 136.641 196.738 135.521 201.517 135.542H209.261C213.229 135.542 216.237 136.374 218.285 138.038C220.333 139.681 221.506 142.284 221.805 145.846C221.912 146.636 221.762 147.244 221.357 147.67C220.952 148.076 220.354 148.278 219.565 148.278C218.136 148.278 217.314 147.489 217.101 145.91C216.909 143.734 216.216 142.252 215.021 141.462C213.826 140.652 211.906 140.246 209.261 140.246H201.517C199.192 140.246 197.357 140.534 196.013 141.11C194.669 141.665 193.709 142.625 193.133 143.99C192.557 145.334 192.269 147.19 192.269 149.558V164.214C192.269 166.561 192.557 168.417 193.133 169.782C193.709 171.126 194.669 172.086 196.013 172.662C197.378 173.238 199.234 173.526 201.581 173.526H209.261C211.309 173.526 212.909 173.292 214.061 172.822C215.234 172.353 216.056 171.542 216.525 170.39C217.016 169.217 217.261 167.585 217.261 165.494V162.166L211.597 162.102C210.04 162.102 209.261 161.313 209.261 159.734C209.261 158.177 210.04 157.398 211.597 157.398L219.629 157.462C221.186 157.462 221.965 158.241 221.965 159.798V165.494C221.965 169.932 220.941 173.164 218.893 175.19C216.866 177.217 213.656 178.23 209.261 178.23H201.581Z" fill="black"/>
</svg>
